<?xml version="1.0" encoding="UTF-8"?>
<svg id="Layer_2" data-name="Layer 2" xmlns="http://www.w3.org/2000/svg" viewBox="0 0 99.3 72">
  <defs>
    <style>
      .cls-1 {
        fill: #132113;
        stroke-width: 0px;
      }
    </style>
  </defs>
  <g id="Layer_1-2" data-name="Layer 1">
    <g>
      <path class="cls-1" d="m48.09,48.09c0,12.38-9.37,22.58-21.4,23.9-1.41.15-2.65-.97-2.65-2.4v-36.15q0-9.39-6.67-9.39H2.4C1.08,24.05,0,22.97,0,21.64V2.4C0,1.08,1.08,0,2.4,0h19.23c1.33,0,2.4,1.08,2.4,2.4v13.32c0,7.5,1.52,7.94,5.35,8.92.02,0,.04,0,.07.01.39.1.82.21,1.26.33,10.04,2.89,17.37,12.14,17.37,23.1Z"/>
      <path class="cls-1" d="m30.71,24.99c-.41-.12-.84-.23-1.26-.33.39.1.82.21,1.26.33Z"/>
      <path class="cls-1" d="m99.3,26.45v19.23c0,1.33-1.08,2.4-2.4,2.4h-17.78c-2.13,0-3.85,1.63-3.85,3.66v17.85c0,1.43-1.24,2.55-2.65,2.4-11.17-1.22-20.03-10.09-21.25-21.25-.15-1.42.97-2.65,2.39-2.65h17.65c2.13,0,3.86-1.63,3.86-3.66v-16.52c0-2.13-1.64-3.85-3.66-3.85h-17.98c-1.33,0-2.4-1.08-2.4-2.4V2.4C51.21,1.08,52.28,0,53.61,0h19.23c1.33,0,2.41,1.08,2.41,2.4v17.78c0,2.13,1.63,3.86,3.66,3.86h17.98c1.33,0,2.4,1.08,2.4,2.4Z"/>
    </g>
  </g>
</svg>