<?xml version="1.0" encoding="UTF-8"?>
<svg id="Layer_2" data-name="Layer 2" xmlns="http://www.w3.org/2000/svg" viewBox="0 0 513.06 72">
  <defs>
    <style>
      .cls-1 {
        fill: #132113;
        stroke-width: 0px;
      }
    </style>
  </defs>
  <g id="Layer_1-2" data-name="Layer 1">
    <g>
      <g>
        <path class="cls-1" d="m48.09,48.09c0,12.38-9.37,22.58-21.4,23.9-1.41.15-2.65-.97-2.65-2.4v-36.15q0-9.39-6.67-9.39H2.4C1.08,24.05,0,22.97,0,21.64V2.4C0,1.08,1.08,0,2.4,0h19.23c1.33,0,2.4,1.08,2.4,2.4v13.32c0,7.5,1.52,7.94,5.35,8.92.02,0,.04,0,.07.01.39.1.82.21,1.26.33,10.04,2.89,17.37,12.14,17.37,23.1Z"/>
        <path class="cls-1" d="m30.71,24.99c-.41-.12-.84-.23-1.26-.33.39.1.82.21,1.26.33Z"/>
        <path class="cls-1" d="m99.3,26.45v19.23c0,1.33-1.08,2.4-2.4,2.4h-17.78c-2.13,0-3.85,1.63-3.85,3.66v17.85c0,1.43-1.24,2.55-2.65,2.4-11.17-1.22-20.03-10.09-21.25-21.25-.15-1.42.97-2.65,2.39-2.65h17.65c2.13,0,3.86-1.63,3.86-3.66v-16.52c0-2.13-1.64-3.85-3.66-3.85h-17.98c-1.33,0-2.4-1.08-2.4-2.4V2.4C51.21,1.08,52.28,0,53.61,0h19.23c1.33,0,2.41,1.08,2.41,2.4v17.78c0,2.13,1.63,3.86,3.66,3.86h17.98c1.33,0,2.4,1.08,2.4,2.4Z"/>
      </g>
      <g>
        <path class="cls-1" d="m145.76,27.43c2.42,1.55,4.33,3.7,5.72,6.46,1.39,2.76,2.09,5.89,2.09,9.39s-.7,6.64-2.09,9.42c-1.39,2.78-3.3,4.95-5.72,6.49-2.42,1.55-5.16,2.32-8.21,2.32-2.51,0-4.81-.55-6.9-1.65-2.09-1.1-3.8-2.64-5.15-4.61v5.45h-8.21V13.67h8.21v17.7c1.35-1.97,3.06-3.51,5.15-4.61,2.09-1.1,4.38-1.65,6.9-1.65,3.05,0,5.79.77,8.21,2.32Zm-3.16,23.92c1.88-2.11,2.83-4.8,2.83-8.08s-.94-5.96-2.83-8.04-4.31-3.13-7.27-3.13-5.23,1.04-7.07,3.13c-1.84,2.09-2.76,4.77-2.76,8.04,0,2.15.41,4.08,1.25,5.79.83,1.71,2,3.04,3.5,4,1.5.96,3.2,1.45,5.08,1.45,2.96,0,5.38-1.05,7.27-3.16Z"/>
        <path class="cls-1" d="m180.92,53.91c1.77-.67,3.22-1.55,4.34-2.62l4.71,4.84c-1.48,1.57-3.57,2.86-6.26,3.87-2.69,1.01-5.32,1.51-7.87,1.51-3.32,0-6.37-.79-9.15-2.36-2.78-1.57-4.99-3.75-6.63-6.53-1.64-2.78-2.46-5.92-2.46-9.42s.78-6.55,2.36-9.29c1.57-2.74,3.71-4.89,6.43-6.46,2.71-1.57,5.71-2.35,8.98-2.35,5.34,0,9.52,1.84,12.55,5.52,3.03,3.68,4.54,8.7,4.54,15.07h-26.92c.45,2.78,1.57,5.01,3.36,6.7,1.79,1.68,4.01,2.52,6.66,2.52,1.79,0,3.58-.34,5.35-1.01Zm-11.81-19.88c-1.79,1.55-2.96,3.62-3.5,6.22h18.91c-.4-2.56-1.38-4.62-2.93-6.19-1.55-1.57-3.58-2.35-6.09-2.35s-4.6.77-6.39,2.32Z"/>
        <path class="cls-1" d="m216.69,58.76c-.99.85-2.14,1.53-3.47,2.02-1.32.49-2.66.74-4,.74-2.87,0-5.22-.94-7.03-2.83-1.82-1.88-2.73-4.28-2.73-7.2v-18.78h-5.05v-6.8h5.05v-9.56h7.94v9.56h7.87v6.8h-7.87v17.77c0,1.17.34,2.13,1.01,2.89.67.76,1.48,1.14,2.42,1.14.67,0,1.33-.12,1.99-.37.65-.25,1.15-.55,1.51-.91l2.36,5.52Z"/>
        <path class="cls-1" d="m242.53,58.76c-.99.85-2.14,1.53-3.47,2.02-1.32.49-2.66.74-4,.74-2.87,0-5.22-.94-7.03-2.83-1.82-1.88-2.73-4.28-2.73-7.2v-18.78h-5.05v-6.8h5.05v-9.56h7.94v9.56h7.87v6.8h-7.87v17.77c0,1.17.34,2.13,1.01,2.89.67.76,1.48,1.14,2.42,1.14.67,0,1.33-.12,1.99-.37.65-.25,1.15-.55,1.51-.91l2.36,5.52Z"/>
        <path class="cls-1" d="m268.47,53.91c1.77-.67,3.22-1.55,4.34-2.62l4.71,4.84c-1.48,1.57-3.57,2.86-6.26,3.87-2.69,1.01-5.32,1.51-7.87,1.51-3.32,0-6.37-.79-9.15-2.36-2.78-1.57-4.99-3.75-6.63-6.53-1.64-2.78-2.46-5.92-2.46-9.42s.78-6.55,2.36-9.29c1.57-2.74,3.71-4.89,6.43-6.46,2.71-1.57,5.71-2.35,8.98-2.35,5.34,0,9.52,1.84,12.55,5.52,3.03,3.68,4.54,8.7,4.54,15.07h-26.92c.45,2.78,1.57,5.01,3.36,6.7,1.79,1.68,4.01,2.52,6.66,2.52,1.79,0,3.58-.34,5.35-1.01Zm-11.81-19.88c-1.79,1.55-2.96,3.62-3.5,6.22h18.91c-.4-2.56-1.38-4.62-2.93-6.19-1.55-1.57-3.58-2.35-6.09-2.35s-4.6.77-6.39,2.32Z"/>
        <path class="cls-1" d="m298.72,27.09c2.2-1.32,4.69-1.98,7.47-1.98v7c-3.72,0-6.73,1.01-9.02,3.03s-3.43,4.69-3.43,8.01v17.56h-8.21V25.92h8.21v6.59c1.12-2.29,2.78-4.09,4.98-5.42Z"/>
        <g>
          <path class="cls-1" d="m341.06,58.76c-.99.85-2.14,1.53-3.47,2.02s-2.66.74-4,.74c-2.87,0-5.21-.94-7.03-2.83-1.82-1.88-2.73-4.28-2.73-7.2v-18.78h-5.05v-6.8h5.05v-9.56h7.94v9.56h7.87v6.8h-7.87v17.77c0,1.17.34,2.13,1.01,2.89.67.76,1.48,1.14,2.42,1.14.67,0,1.33-.12,1.99-.37.65-.25,1.15-.55,1.51-.91l2.36,5.52Z"/>
          <path class="cls-1" d="m359.9,27.09c2.2-1.32,4.69-1.98,7.47-1.98v7c-3.72,0-6.73,1.01-9.02,3.03s-3.43,4.69-3.43,8.01v17.56h-8.21V25.92h8.21v6.59c1.12-2.29,2.78-4.09,4.98-5.42Z"/>
          <path class="cls-1" d="m395.06,29.11c2.67,2.67,4,6.22,4,10.67v20.93h-8.01v-4.1c-1.26,1.53-2.87,2.72-4.84,3.6-1.97.88-3.99,1.31-6.06,1.31-2.47,0-4.68-.46-6.63-1.38-1.95-.92-3.49-2.22-4.61-3.9-1.12-1.68-1.68-3.62-1.68-5.82s.63-4.24,1.88-5.99c1.26-1.75,2.96-3.12,5.11-4.1,2.15-.99,4.53-1.48,7.13-1.48,3.1,0,6.33.61,9.69,1.82v-.87c0-2.29-.68-4.18-2.05-5.69s-3.51-2.25-6.43-2.25-5.92.88-9.42,2.62l-2.83-5.72c4.93-2.42,9.56-3.63,13.86-3.63,4.58,0,8.2,1.33,10.87,4Zm-7.27,24.86c1.77-1.03,2.86-2.42,3.26-4.17v-3.97c-2.69-.85-5.52-1.28-8.48-1.28-2.11,0-3.88.53-5.32,1.58-1.44,1.05-2.15,2.39-2.15,4s.65,2.92,1.95,3.9c1.3.99,2.94,1.48,4.91,1.48,2.11,0,4.05-.52,5.82-1.55Z"/>
          <path class="cls-1" d="m431.77,26.83c1.97,1.14,3.51,2.74,4.61,4.78,1.1,2.04,1.65,4.36,1.65,6.96v22.14h-8.01v-20.52c0-2.38-.68-4.32-2.05-5.82-1.37-1.5-3.13-2.25-5.28-2.25-2.38,0-4.37.73-5.99,2.19s-2.42,3.24-2.42,5.35v21.06h-8.21V25.92h8.21v4.58c1.08-1.66,2.57-2.97,4.47-3.94,1.91-.96,4-1.45,6.29-1.45,2.51,0,4.75.57,6.73,1.72Z"/>
          <path class="cls-1" d="m449.57,60.14c-2.71-.92-5.1-2.19-7.17-3.8l3.5-5.38c1.84,1.35,3.8,2.39,5.89,3.13,2.09.74,4.09,1.11,6.02,1.11s3.29-.36,4.34-1.08c1.05-.72,1.58-1.68,1.58-2.89s-.6-2.2-1.78-2.83c-1.19-.63-3.06-1.28-5.62-1.95-2.83-.76-5.1-1.54-6.83-2.32-1.73-.78-3.07-1.83-4.04-3.13-.96-1.3-1.45-2.96-1.45-4.98,0-2.15.55-4.05,1.65-5.69,1.1-1.64,2.65-2.92,4.64-3.84,2-.92,4.27-1.38,6.83-1.38,2.29,0,4.59.37,6.9,1.11,2.31.74,4.43,1.76,6.36,3.06l-3.16,5.52c-1.71-1.08-3.43-1.92-5.18-2.52s-3.39-.91-4.91-.91c-1.62,0-2.94.35-3.97,1.04-1.03.7-1.55,1.63-1.55,2.79,0,.76.25,1.37.74,1.82.49.45,1.19.84,2.09,1.18.9.34,2.45.84,4.64,1.51,2.56.72,4.67,1.44,6.33,2.15,1.66.72,3.06,1.77,4.21,3.16,1.14,1.39,1.72,3.21,1.72,5.45,0,3.32-1.26,5.99-3.77,8.01s-5.81,3.03-9.89,3.03c-2.69,0-5.4-.46-8.11-1.38Z"/>
          <path class="cls-1" d="m477.83,19.25c-.92-.94-1.38-2.04-1.38-3.3s.46-2.34,1.38-3.26,2.03-1.38,3.33-1.38,2.33.46,3.23,1.38c.9.92,1.35,2.01,1.35,3.26s-.45,2.36-1.35,3.3c-.9.94-1.97,1.41-3.23,1.41s-2.41-.47-3.33-1.41Zm-.77,6.66h8.21v34.79h-8.21V25.92Z"/>
          <path class="cls-1" d="m513.06,58.76c-.99.85-2.14,1.53-3.47,2.02s-2.66.74-4,.74c-2.87,0-5.21-.94-7.03-2.83-1.82-1.88-2.73-4.28-2.73-7.2v-18.78h-5.05v-6.8h5.05v-9.56h7.94v9.56h7.87v6.8h-7.87v17.77c0,1.17.34,2.13,1.01,2.89.67.76,1.48,1.14,2.42,1.14.67,0,1.33-.12,1.99-.37.65-.25,1.15-.55,1.51-.91l2.36,5.52Z"/>
        </g>
      </g>
    </g>
  </g>
</svg>